<svg width="289" height="84" viewBox="0 0 289 84" fill="none" xmlns="http://www.w3.org/2000/svg">
<path d="M53.6241 83.7053V53.0379C53.6241 29.3021 34.2914 38.7281 34.2914 22.1604C34.2914 18.9834 35.693 13.0494 35.693 9.50481C35.693 2.75692 32.8415 0 32.8415 0H21.4593C21.4593 0 24.3109 2.75692 24.3109 9.50481C24.3109 13.0494 22.9093 18.8783 22.9093 22.1604C22.9093 38.8069 42.2178 29.5122 42.2178 53.0379V83.7316H53.6241V83.7053Z" fill="#0063BE"/>
<path d="M32.189 83.7053V53.0379C32.189 29.3021 12.8321 38.7281 12.8321 22.1604C12.8321 18.9834 14.2337 13.0494 14.2337 9.50481C14.2337 2.75692 11.3821 0 11.3821 0H0C0 0 2.85158 2.75692 2.85158 9.50481C2.85158 13.0494 1.44995 18.8783 1.44995 22.1604C1.44995 38.8069 20.7827 29.5122 20.7827 53.0379V83.7316H32.189V83.7053Z" fill="#0063BE"/>
<path d="M74.7451 83.7053H63.3388V53.0379C63.3388 29.5122 44.0303 38.8069 44.0303 22.1604C44.0303 18.8783 45.4319 13.0494 45.4319 9.50481C45.4319 2.75692 42.5803 0 42.5803 0H53.9383C53.9383 0 56.814 2.75692 56.814 9.50481C56.814 13.0494 55.4124 18.9834 55.4124 22.1604C55.4124 38.7281 74.721 29.2759 74.721 53.0379V83.7053H74.7451Z" fill="#0063BE"/>
<path d="M121.265 83.7316L115.803 72.2838L112.927 76.0385V83.7316H106.862V57.9741H112.927V67.794L119.984 57.9741H127.233L120.153 66.9801L128.345 83.7316H121.265ZM146.349 83.7316H152.825L144.077 57.9741H138.108L129.36 83.7316H135.74L137.117 78.7954H144.947L146.349 83.7316ZM138.688 73.3866L141.056 65.0633L143.4 73.3866H138.688ZM166.334 83.7316C172.037 83.7316 175.106 80.7121 175.106 75.4084C175.106 72.5464 173.777 70.7085 171.723 69.737C173.318 68.713 174.454 67.3214 174.454 64.6957C174.454 60.3372 171.892 57.9741 166.431 57.9741H155.145V83.7316H166.334ZM166.237 63.3042C167.977 63.3042 168.581 64.1969 168.581 65.4834C168.581 66.77 167.977 67.6627 166.31 67.6627H160.921V63.3042H166.237ZM166.503 72.809C168.291 72.809 169.185 73.8067 169.185 75.5396C169.185 77.1938 168.34 78.3753 166.479 78.3753H160.921V72.809H166.503ZM178.997 83.7316H185.062V57.9741H178.997V83.7316Z" fill="#0063BE"/>
<path d="M112.831 25.0485V29.0395H121.216V34.7371H112.831V45.0822H106.862V19.2984H124.551V25.0485H112.831ZM140.138 45.1084H146.856L142.168 35.1835C144.923 33.8969 146.542 31.5076 146.542 27.6217C146.542 21.7402 142.845 19.2984 137.649 19.2984H126.871V45.1084H132.767V36.2338H136.127L140.138 45.1084ZM137.504 24.8647C139.606 24.8647 140.549 25.9413 140.549 27.7792C140.549 29.7747 139.606 30.8249 137.431 30.8249H132.792V24.8647H137.504ZM149.974 45.1084H167.929V39.437H155.918V34.3958H163.386V28.8032H155.918V24.9698H167.107V19.2984H149.998V45.1084H149.974ZM178.828 45.5023C184.797 45.5023 188.494 42.7716 188.494 37.2052C188.494 32.1115 185.352 30.3261 180.084 28.987C176.798 28.1468 175.904 27.6742 175.904 26.4926C175.904 25.4949 176.484 24.681 178.659 24.681C181.003 24.681 183.008 25.5737 184.893 27.0703L188.107 22.2391C185.691 20.1123 182.863 18.8783 178.924 18.8783C173.56 18.8783 169.862 22.0028 169.862 26.834C169.862 31.954 172.714 33.5819 178.006 34.8947C181.607 35.8137 182.453 36.4438 182.453 37.6516C182.453 39.0957 181.51 39.6733 179.021 39.6733C176.774 39.6733 173.994 38.5181 172.303 37.0477L169.089 41.8001C171.336 44.0056 174.961 45.5023 178.828 45.5023ZM191.708 45.1084H209.663V39.437H197.653V34.3958H205.144V28.8032H197.653V24.9698H208.842V19.2984H191.732V45.1084H191.708ZM227.836 45.1084H232.814V19.2984H227.039V33.3718L217.88 19.2984H212.491V45.1084H218.266V30.3261L227.836 45.1084ZM237.14 45.1084H243.206V19.2984H237.14V45.1084ZM257.27 45.5023C263.239 45.5023 267.444 41.9051 267.444 33.9757V19.2984H261.403V33.9757C261.403 37.4678 260.049 39.6208 257.343 39.6208C254.588 39.6208 253.234 37.4415 253.234 33.9757V19.2984H247.169V33.9757C247.145 41.9314 251.374 45.5023 257.27 45.5023ZM279.334 45.5023C285.303 45.5023 289 42.7716 289 37.2052C289 32.1115 285.858 30.3261 280.59 28.987C277.304 28.1468 276.41 27.6742 276.41 26.4926C276.41 25.4949 276.99 24.681 279.164 24.681C281.509 24.681 283.514 25.5737 285.399 27.0703L288.613 22.2391C286.197 20.1123 283.345 18.8783 279.43 18.8783C274.066 18.8783 270.368 22.0028 270.368 26.834C270.368 31.954 273.22 33.5819 278.512 34.8947C282.113 35.8137 282.959 36.4438 282.959 37.6516C282.959 39.0957 282.016 39.6733 279.527 39.6733C277.28 39.6733 274.5 38.5181 272.809 37.0477L269.595 41.8001C271.818 44.0056 275.467 45.5023 279.334 45.5023Z" fill="#0063BE"/>
</svg>
