<svg width="225" height="99" viewBox="0 0 225 99" fill="none" xmlns="http://www.w3.org/2000/svg">
<mask id="mask0_39_70" style="mask-type:luminance" maskUnits="userSpaceOnUse" x="0" y="0" width="223" height="99">
<path d="M223 0H0V99H223V0Z" fill="white"/>
</mask>
<g mask="url(#mask0_39_70)">
<path d="M134.874 68.7831H165.274V81.2487H120.202V17.2373H134.874V68.7831Z" fill="#707070"/>
<path d="M197.534 56.8451H209.482V68.0462C207.288 68.8892 202.987 69.7323 198.905 69.7323C185.694 69.7323 181.301 62.9711 181.301 49.241C181.301 36.1374 185.483 28.4265 198.682 28.4265C206.039 28.4265 210.213 30.7533 213.675 35.1904L222.802 26.7376C217.227 18.726 207.5 16.2981 198.365 16.2981C177.83 16.2897 167.033 27.5807 167.033 49.1314C167.033 70.5753 176.79 82.2007 198.256 82.2007C208.113 82.2007 217.748 79.6716 222.992 75.9651V44.9078H197.534V56.8451Z" fill="#707070"/>
<path d="M83.8309 84.5045C103.008 65.1736 103.007 33.831 83.8289 14.499C64.6507 -4.83304 33.5575 -4.83393 14.3804 14.497C-4.79669 33.8279 -4.79582 65.1705 14.3824 84.5025C33.5606 103.835 64.6537 103.835 83.8309 84.5045Z" fill="#A50034"/>
<path d="M61.1184 66.6079H51.0826V28.5984H47.3721V70.3594H51.0909V70.3341H61.1268L61.1184 66.6079Z" fill="white"/>
<path d="M86.1485 51.0737H61.1759V47.3447H89.8088C89.8479 48.0669 89.8674 48.7891 89.8674 49.5198C89.8674 71.9725 71.7136 90.1707 49.3252 90.1707C26.9368 90.1707 8.78027 71.9809 8.78027 49.5169C8.78027 27.053 26.9313 8.86597 49.3224 8.86597C49.9134 8.86597 50.5016 8.87814 51.0871 8.9025V12.6034C50.5016 12.5772 49.9153 12.5641 49.328 12.5641C28.9775 12.5641 12.474 29.11 12.474 49.5169C12.474 69.9239 28.9747 86.4726 49.328 86.4726C69.121 86.4726 85.2899 70.8175 86.1457 51.1777L86.1485 51.0737Z" fill="white"/>
<path d="M34.2065 39.8496C35.3262 39.8441 36.4192 39.5043 37.3475 38.8732C38.2759 38.2421 38.998 37.3479 39.4226 36.3036C39.8473 35.2592 39.9556 34.1114 39.7338 33.005C39.512 31.8987 38.97 30.8834 38.1763 30.0872C37.3826 29.2911 36.3727 28.7497 35.2741 28.5316C34.1755 28.3134 33.0373 28.4282 32.0034 28.8614C30.9694 29.2946 30.0859 30.0268 29.4644 30.9657C28.8428 31.9046 28.5111 33.008 28.5111 34.1367C28.513 34.8888 28.6617 35.6331 28.9489 36.3273C29.2361 37.0214 29.6562 37.6517 30.185 38.1822C30.7139 38.7127 31.3412 39.133 32.0312 39.4191C32.7212 39.7052 33.4604 39.8515 34.2065 39.8496Z" fill="white"/>
</g>
</svg>
