<svg width="200" height="100" viewBox="70 20 5 100"
 fill="none" xmlns="http://www.w3.org/2000/svg">
<g clip-path="url(#clip0_39_89)">
<path d="M97.37 100.728C96.47 100.328 94.97 99.9281 93.37 99.5281C93.47 100.428 93.57 101.228 93.67 101.928C94.97 101.528 96.17 101.128 97.37 100.728ZM93.37 98.7281C95.37 99.2281 97.47 99.8281 98.27 100.328C98.97 100.028 99.67 99.7281 100.37 99.4281C99.17 98.7281 96.17 97.8281 93.47 97.0281C93.37 97.6281 93.37 98.2281 93.37 98.7281ZM98.47 101.128C98.37 101.128 98.37 101.128 98.47 101.128C96.17 102.028 93.97 102.628 91.77 103.128H91.67C89.67 103.528 87.67 103.828 85.67 103.928H85.57C78.97 104.328 72.77 103.028 68.07 100.928L67.87 100.828C67.87 100.828 67.77 100.828 67.77 100.728C59.87 97.0281 56.27 90.5281 64.07 85.3281C63.27 84.0281 62.27 82.7281 61.17 81.4281C60.87 81.0281 60.47 80.5281 60.17 80.1281C59.57 81.7281 59.47 82.8281 60.47 84.2281C60.57 84.4281 60.57 84.5281 60.47 84.7281L54.97 91.3281C54.87 91.5281 54.57 91.5281 54.47 91.3281C26.87 61.0281 58.37 15.1281 96.37 28.3281C96.57 28.4281 96.67 28.6281 96.57 28.8281L90.57 38.7281C90.47 38.8281 90.37 38.9281 90.17 38.9281C88.27 38.6281 87.17 38.7281 86.37 39.4281C88.07 39.7281 89.87 40.1281 91.67 40.8281C93.27 39.0281 95.07 37.3281 96.87 35.8281C96.87 35.8281 96.97 35.8281 96.97 35.7281C97.07 35.6281 97.17 35.6281 97.27 35.7281C97.37 35.7281 97.47 35.8281 97.47 35.9281V36.0281L100.87 46.2281C100.87 46.3281 100.87 46.4281 100.87 46.5281C100.87 46.6281 100.77 46.7281 100.67 46.7281C100.57 46.8281 100.47 46.8281 100.37 46.9281C101.07 49.0281 105.97 63.8281 107.47 67.8281C107.97 69.0281 108.97 71.3281 108.97 72.6281C108.97 73.9281 108.07 74.6281 106.17 74.7281C105.17 75.6281 105.07 76.0281 105.57 76.6281C106.57 78.0281 106.07 78.6281 104.87 79.5281C105.97 80.4281 105.77 82.0281 105.17 82.0281C104.37 82.0281 104.07 82.3281 103.57 82.9281C107.07 86.3281 104.17 89.3281 99.47 90.3281C97.97 90.6281 96.27 90.8281 94.47 90.7281C94.47 90.7281 94.47 90.7281 94.47 90.8281C93.87 92.8281 93.47 94.7281 93.37 96.4281C96.47 97.3281 100.17 98.4281 101.17 99.2281L101.27 99.3281C101.37 99.4281 101.37 99.5281 101.37 99.6281C101.37 99.7281 101.27 99.8281 101.17 99.8281C101.17 99.8281 101.07 99.8281 101.07 99.9281C100.27 100.328 99.37 100.728 98.47 101.128ZM65.77 87.5281V87.6281C65.97 88.5281 66.07 89.4281 66.07 90.4281C68.27 88.9281 67.67 86.4281 67.07 85.2281C66.47 85.6281 65.97 85.9281 65.37 86.3281C65.47 86.7281 65.57 87.1281 65.77 87.5281ZM65.17 88.2281C63.57 89.2281 62.87 90.3281 62.77 91.5281C63.77 91.4281 64.67 91.1281 65.27 90.8281C65.37 89.9281 65.27 89.0281 65.17 88.2281ZM62.67 92.2281C62.67 92.7281 62.87 93.1281 63.07 93.6281C68.07 93.5281 71.77 88.6281 69.07 83.7281C68.57 84.1281 68.07 84.5281 67.57 84.8281C68.57 86.7281 69.47 91.5281 62.67 92.2281ZM63.57 94.3281C63.97 94.9281 64.47 95.4281 65.07 95.9281C72.37 93.8281 73.87 87.7281 70.97 82.2281C70.57 82.6281 70.17 82.9281 69.67 83.3281C72.77 88.6281 68.77 93.9281 63.57 94.3281ZM65.77 96.4281C66.47 96.8281 67.27 97.2281 68.07 97.5281C77.07 93.0281 74.87 83.7281 72.87 80.5281C72.47 80.9281 71.97 81.3281 71.57 81.7281C74.57 87.5281 73.17 94.0281 65.77 96.4281ZM93.77 60.0281C96.87 58.8281 100.77 58.2281 103.77 59.1281C102.47 55.1281 101.07 51.0281 100.27 48.6281C100.27 52.6281 98.37 56.4281 94.47 58.0281C94.27 58.7281 94.07 59.4281 93.77 60.0281ZM92.67 60.6281C92.67 60.6281 92.67 60.5281 92.77 60.5281C93.27 59.7281 93.67 58.8281 93.87 57.8281V57.7281C94.07 56.9281 94.07 56.0281 94.07 55.1281V55.0281C94.07 54.4281 93.97 53.7281 93.77 53.0281C93.27 53.5281 92.87 54.0281 92.47 54.6281C92.67 56.9281 92.17 59.4281 89.67 61.6281C89.77 62.3281 89.77 63.0281 89.67 63.7281C90.97 62.7281 91.97 61.7281 92.67 60.6281ZM74.27 81.8281C74.47 81.0281 74.87 80.4281 75.47 79.8281C75.17 79.3281 75.07 78.7281 74.97 78.2281C74.47 78.8281 73.97 79.3281 73.37 79.9281C73.67 80.5281 73.97 81.1281 74.27 81.8281ZM75.97 79.4281C76.37 79.1281 76.87 78.9281 77.37 78.7281C77.07 78.0281 76.87 77.1281 76.77 76.1281C76.37 76.6281 75.87 77.1281 75.47 77.6281C75.57 78.2281 75.77 78.8281 75.97 79.4281ZM58.97 82.1281C58.97 81.3281 59.27 80.4281 59.67 79.4281C57.87 76.8281 56.27 73.4281 55.77 68.4281V68.3281C55.77 67.8281 55.67 67.3281 55.67 66.8281V66.7281C55.67 66.5281 55.67 66.4281 55.67 66.2281C55.57 64.6281 55.67 62.9281 55.97 61.3281V61.2281C56.07 60.7281 56.17 60.2281 56.27 59.7281V59.6281C57.37 55.0281 59.67 50.6281 62.97 47.0281L63.07 46.9281C64.07 45.9281 65.17 44.9281 66.27 44.0281C68.07 42.6281 70.07 41.5281 72.27 40.7281C72.27 40.7281 72.27 40.7281 72.37 40.7281C75.07 39.7281 78.07 39.1281 81.27 39.1281C81.47 39.1281 81.67 39.1281 81.87 39.1281C83.07 39.1281 84.27 39.2281 85.57 39.4281C86.17 38.7281 86.77 38.3281 87.67 38.2281C87.57 38.2281 87.57 38.2281 87.47 38.1281C85.87 37.7281 84.37 37.4281 82.77 37.3281C74.57 36.8281 66.57 40.4281 61.17 46.4281C60.07 47.6281 59.07 48.9281 58.17 50.3281C58.17 50.3281 58.17 50.3281 58.17 50.4281C57.37 51.7281 56.67 53.1281 56.07 54.5281C55.47 55.9281 54.97 57.4281 54.67 58.9281C53.27 64.8281 53.77 71.3281 56.97 77.9281C57.27 79.3281 58.07 80.7281 58.97 82.1281ZM60.27 79.1281L60.37 79.2281C60.67 79.6281 60.87 79.9281 61.17 80.3281C62.57 79.2281 63.87 78.1281 65.17 76.9281C64.57 76.6281 63.97 76.3281 63.47 76.0281C62.47 77.0281 61.87 77.4281 60.17 77.4281C59.87 77.4281 59.77 77.2281 59.87 76.9281C60.17 76.0281 59.87 73.7281 59.87 72.5281C59.77 72.3281 59.57 72.0281 59.47 71.8281C59.07 71.9281 58.47 71.9281 57.77 71.9281C57.37 71.9281 57.27 71.6281 57.57 71.3281C58.67 70.3281 58.47 68.9281 58.77 67.0281C58.17 67.3281 56.97 68.1281 56.57 68.4281C56.97 73.3281 58.57 76.6281 60.27 79.1281ZM63.77 83.7281C78.37 73.9281 84.17 56.2281 97.27 45.0281L95.37 44.6281C94.97 44.5281 94.97 44.5281 95.07 44.1281L95.37 41.4281C83.17 53.7281 76.47 73.9281 62.87 82.5281C63.17 82.9281 63.47 83.3281 63.77 83.7281ZM97.67 39.1281C97.07 39.6281 96.57 40.1281 96.07 40.6281L95.67 44.0281L97.87 44.5281C98.27 44.2281 98.67 43.8281 99.17 43.5281L98.87 42.5281C98.27 42.7281 97.57 42.4281 97.27 41.7281C97.07 41.1281 97.37 40.4281 98.07 40.1281L97.67 39.1281ZM65.97 77.1281C64.57 78.4281 63.17 79.7281 61.57 80.9281L61.67 81.0281C61.87 81.3281 62.17 81.6281 62.37 81.9281C69.57 77.4281 74.77 69.6281 79.97 61.4281C84.47 54.2281 89.27 46.2281 95.37 40.2281L95.47 40.1281C96.07 39.5281 96.77 38.9281 97.37 38.3281L96.87 36.8281C94.47 38.8281 92.37 41.0281 90.27 43.4281C90.27 43.4281 90.27 43.5281 90.17 43.5281C86.27 48.2281 82.97 53.5281 79.87 58.4281C78.17 61.0281 76.57 63.6281 74.77 66.2281C74.77 66.2281 74.77 66.3281 74.67 66.3281C73.97 67.3281 73.17 68.3281 72.47 69.4281C72.47 69.4281 72.47 69.5281 72.37 69.5281C71.87 70.2281 71.27 70.9281 70.67 71.6281C70.67 71.6281 70.67 71.7281 70.57 71.7281C69.77 72.7281 68.87 73.7281 67.97 74.7281C67.97 74.7281 67.97 74.8281 67.87 74.8281C67.47 75.5281 66.67 76.3281 65.97 77.1281ZM65.67 76.4281C66.17 75.9281 66.77 75.3281 67.27 74.8281C63.97 74.3281 62.07 72.7281 61.37 70.7281C60.87 71.1281 60.57 71.4281 60.17 71.6281C60.27 71.8281 60.37 72.0281 60.47 72.2281C60.47 72.2281 60.57 72.3281 60.57 72.4281C61.87 74.5281 63.37 75.2281 65.67 76.4281ZM67.77 74.1281C68.27 73.5281 68.87 72.9281 69.37 72.3281C63.27 74.0281 59.37 64.4281 69.87 60.5281C69.07 60.2281 68.37 60.0281 67.67 59.6281C60.87 62.6281 58.57 72.9281 67.77 74.1281ZM70.37 71.1281C70.87 70.4281 71.47 69.8281 71.97 69.1281C72.17 67.3281 71.77 65.3281 69.47 64.3281C68.87 64.6281 68.27 65.0281 67.77 65.5281C71.07 66.0281 70.97 70.2281 67.97 70.2281C65.47 70.2281 65.57 67.1281 66.67 65.6281C66.67 65.6281 66.67 65.5281 66.77 65.5281C67.27 64.8281 68.07 64.2281 69.17 63.6281C69.17 63.6281 69.27 63.6281 69.27 63.5281C70.07 63.1281 71.07 62.8281 72.17 62.5281H72.27C72.97 62.3281 73.67 62.2281 74.57 62.1281C73.97 61.8281 73.17 61.6281 72.47 61.3281C71.97 61.1281 71.47 61.0281 70.87 60.8281C59.77 64.4281 64.27 74.3281 70.37 71.1281ZM72.67 68.0281C73.17 67.3281 73.67 66.6281 74.17 65.9281C74.07 65.2281 73.27 63.9281 72.37 63.2281C71.67 63.4281 70.97 63.6281 70.27 63.9281C72.07 64.9281 72.67 66.5281 72.67 68.0281ZM74.67 65.2281C75.17 64.4281 75.67 63.7281 76.17 62.9281C76.07 62.8281 75.87 62.7281 75.77 62.6281C75.07 62.7281 74.17 62.8281 73.17 63.0281C73.87 63.7281 74.37 64.5281 74.67 65.2281ZM76.57 62.4281C77.07 61.6281 77.57 60.8281 78.17 60.0281C76.17 59.5281 72.67 59.8281 70.37 59.8281C71.17 60.1281 71.97 60.3281 72.77 60.6281C73.97 61.0281 75.07 61.4281 76.07 62.0281C76.07 62.0281 76.17 62.0281 76.17 62.1281C76.27 62.2281 76.47 62.3281 76.57 62.4281ZM78.57 59.3281C78.97 58.7281 79.27 58.1281 79.67 57.6281C77.47 56.9281 73.97 57.1281 71.77 57.1281C69.17 57.1281 66.37 57.2281 64.27 56.6281C65.37 57.6281 66.77 58.4281 68.27 59.0281C69.37 59.2281 72.07 59.0281 72.97 59.0281C74.97 59.0281 77.17 59.0281 78.57 59.3281ZM80.07 57.0281C80.37 56.5281 80.67 56.0281 80.97 55.5281C78.17 54.4281 73.67 54.8281 70.77 54.8281C67.47 54.8281 64.07 54.6281 61.87 52.8281C62.17 53.9281 62.67 54.8281 63.27 55.6281C66.47 57.0281 72.67 56.3281 76.37 56.4281C77.77 56.5281 79.07 56.6281 80.07 57.0281ZM81.37 54.9281C81.67 54.4281 81.97 53.9281 82.37 53.4281C81.27 53.0281 80.17 52.8281 79.07 52.6281H78.97C76.17 52.2281 73.37 52.3281 70.37 52.3281C68.47 52.3281 66.77 52.2281 65.17 51.8281H65.07C63.77 51.4281 62.67 50.7281 61.77 49.4281C61.67 49.5281 61.57 49.6281 61.47 49.8281C61.47 50.4281 61.57 50.9281 61.67 51.5281C63.47 53.9281 66.97 54.2281 70.87 54.2281C73.87 54.1281 78.47 53.7281 81.37 54.9281ZM90.07 42.7281C90.37 42.3281 90.77 41.9281 91.07 41.5281C89.17 40.9281 87.37 40.4281 85.57 40.2281H85.47C84.67 40.1281 83.87 40.0281 83.07 39.9281C83.37 40.3281 83.57 41.0281 83.57 41.8281C83.97 42.2281 84.27 42.7281 84.27 43.2281C84.77 42.9281 85.47 42.8281 86.27 43.0281C86.87 41.6281 88.87 41.3281 90.07 42.7281ZM50.47 85.2281L56.97 80.3281C56.67 79.7281 56.37 79.2281 56.07 78.6281L50.57 81.9281C50.17 82.1281 49.77 81.5281 50.17 81.3281L55.67 77.9281C55.47 77.4281 55.27 77.0281 55.07 76.5281L47.57 80.0281C48.47 81.8281 49.47 83.5281 50.47 85.2281ZM57.37 80.9281L50.87 85.8281C51.97 87.4281 53.17 89.0281 54.57 90.6281L59.67 84.5281C59.37 84.0281 58.97 83.6281 58.67 83.1281L53.77 87.9281C53.47 88.2281 52.97 87.7281 53.27 87.4281L58.27 82.5281C57.97 82.0281 57.67 81.4281 57.37 80.9281ZM47.47 79.4281L54.97 75.9281C54.77 75.4281 54.57 74.9281 54.47 74.4281L48.37 76.2281C47.87 76.3281 47.67 75.6281 48.17 75.5281L54.27 73.7281C54.07 73.0281 53.87 72.4281 53.77 71.7281L45.67 73.4281C45.97 75.5281 46.67 77.4281 47.47 79.4281ZM45.37 72.8281L53.47 71.1281C53.37 70.5281 53.27 69.9281 53.17 69.4281L46.67 70.0281C46.17 70.0281 46.17 69.3281 46.57 69.3281L53.07 68.7281C52.97 68.1281 52.97 67.4281 52.87 66.8281L44.57 66.6281C44.67 68.6281 44.97 70.7281 45.37 72.8281ZM44.57 65.8281L52.87 66.0281C52.87 65.4281 52.87 64.9281 52.87 64.3281L46.47 63.6281C45.97 63.5281 46.07 62.8281 46.57 62.9281L52.97 63.6281C52.97 62.9281 53.07 62.2281 53.17 61.5281L45.07 59.8281C44.77 61.8281 44.57 63.8281 44.57 65.8281ZM45.17 59.1281L53.27 60.8281C53.37 60.2281 53.47 59.7281 53.57 59.2281L47.37 57.2281C46.87 57.1281 47.17 56.4281 47.57 56.5281L53.67 58.4281C53.77 57.9281 53.97 57.3281 54.07 56.8281L46.57 53.1281C46.07 55.0281 45.47 57.0281 45.17 59.1281ZM46.97 52.4281L54.37 56.1281C54.57 55.6281 54.77 55.0281 54.97 54.5281L49.27 51.0281C48.87 50.8281 49.27 50.1281 49.67 50.4281L55.27 53.8281C55.47 53.2281 55.77 52.7281 56.07 52.1281L49.37 47.0281C48.47 48.8281 47.67 50.6281 46.97 52.4281ZM49.67 46.5281L56.37 51.6281C56.57 51.2281 56.87 50.7281 57.17 50.3281L52.27 45.6281C51.97 45.3281 52.47 44.8281 52.77 45.1281L57.57 49.7281C57.97 49.1281 58.27 48.6281 58.67 48.1281L53.07 41.6281C51.87 43.1281 50.67 44.7281 49.67 46.5281ZM53.47 41.0281L59.07 47.5281C59.47 47.1281 59.77 46.6281 60.17 46.2281L55.97 40.5281C55.67 40.1281 56.27 39.7281 56.57 40.1281L60.67 45.7281C61.07 45.3281 61.47 44.8281 61.97 44.4281L57.57 36.8281C56.07 38.0281 54.77 39.4281 53.47 41.0281ZM58.07 36.2281L62.47 43.8281C62.87 43.5281 63.27 43.1281 63.67 42.8281L60.77 36.1281C60.57 35.7281 61.27 35.4281 61.47 35.8281L64.27 42.3281C64.77 41.9281 65.27 41.5281 65.87 41.2281L62.97 32.5281C61.27 33.7281 59.57 34.9281 58.07 36.2281ZM63.57 32.2281L66.47 40.9281C66.97 40.6281 67.37 40.3281 67.87 40.1281L66.17 32.8281C66.07 32.3281 66.77 32.2281 66.87 32.6281L68.57 39.6281C69.07 39.3281 69.57 39.1281 70.07 38.8281L68.77 29.4281C66.97 30.3281 65.27 31.2281 63.57 32.2281ZM69.47 29.2281L70.77 38.6281C71.27 38.4281 71.87 38.2281 72.47 38.0281L72.17 30.2281C72.17 29.7281 72.87 29.7281 72.87 30.2281L73.07 37.8281C73.57 37.6281 74.17 37.5281 74.77 37.3281L75.47 27.5281C73.37 27.9281 71.37 28.5281 69.47 29.2281ZM76.17 27.4281L75.47 37.2281C76.07 37.1281 76.77 36.9281 77.37 36.9281L78.57 29.2281C78.67 28.7281 79.37 28.8281 79.27 29.3281L78.17 36.8281C78.67 36.7281 79.17 36.7281 79.67 36.7281L82.17 26.9281C80.17 26.8281 78.17 27.0281 76.17 27.4281ZM82.97 26.8281L80.47 36.6281C81.07 36.6281 81.77 36.6281 82.37 36.6281L84.77 28.9281C84.87 28.4281 85.57 28.7281 85.47 29.1281L83.07 36.6281C83.67 36.7281 84.27 36.7281 84.87 36.8281L88.97 27.2281C86.97 26.9281 84.97 26.8281 82.97 26.8281ZM89.67 27.4281L85.57 37.0281C86.07 37.1281 86.67 37.2281 87.17 37.4281L91.17 29.6281C91.37 29.2281 92.07 29.5281 91.77 29.9281L87.77 37.5281C88.47 37.7281 89.17 37.9281 89.87 38.2281L95.47 28.9281C93.57 28.2281 91.67 27.7281 89.67 27.4281ZM76.77 48.9281C76.77 49.0281 76.77 49.0281 76.67 49.1281C76.67 49.2281 76.57 49.2281 76.47 49.2281C76.47 49.2281 76.47 49.2281 76.37 49.2281C75.77 49.3281 75.17 49.3281 74.57 49.2281C74.47 49.3281 74.47 49.3281 74.37 49.4281C74.47 50.1281 74.77 50.9281 75.57 51.7281C76.07 51.7281 76.67 51.7281 77.17 51.8281L78.77 45.3281C76.97 44.8281 76.57 41.7281 78.87 41.3281C78.87 40.8281 79.07 40.3281 79.37 40.0281C78.17 40.1281 76.97 40.2281 75.77 40.5281L76.07 44.2281V44.3281V44.7281C76.07 45.2281 75.37 45.2281 75.37 44.8281V44.5281L73.87 43.5281C73.47 43.8281 73.27 44.3281 73.27 44.8281C73.27 45.8281 74.07 46.6281 75.07 46.6281C75.27 46.6281 75.37 46.6281 75.57 46.5281V46.4281C75.57 45.9281 76.27 45.9281 76.27 46.3281V46.7281V46.8281L76.77 48.9281ZM74.17 42.3281L74.37 42.4281C74.37 42.4281 74.37 42.4281 74.47 42.4281L75.67 43.2281L75.37 40.3281C74.47 40.5281 73.57 40.8281 72.67 41.1281C70.77 43.1281 71.07 45.3281 72.17 46.7281L72.27 46.8281C73.17 47.9281 74.67 48.5281 76.07 48.3281L75.87 47.0281C75.67 47.0281 75.47 47.1281 75.27 47.1281C73.87 47.1281 72.77 46.0281 72.77 44.6281C72.77 43.9281 73.07 43.3281 73.57 42.8281C73.47 42.5281 73.77 42.1281 74.17 42.3281ZM73.77 48.9281C72.97 48.6281 72.27 48.1281 71.77 47.6281C69.27 48.2281 67.07 46.4281 66.27 44.8281C65.37 45.5281 64.57 46.2281 63.87 46.9281L65.37 47.3281C65.37 47.3281 65.37 47.3281 65.47 47.3281L65.87 47.4281C65.97 47.4281 65.97 47.4281 66.07 47.5281C66.17 47.5281 66.17 47.6281 66.17 47.6281C67.87 49.7281 72.17 49.7281 73.77 48.9281ZM71.27 46.9281C70.27 45.5281 70.07 43.7281 71.27 41.8281C69.67 42.5281 68.17 43.4281 66.87 44.4281C67.47 45.7281 69.27 47.2281 71.27 46.9281ZM65.57 48.1281C65.27 48.8281 65.27 50.3281 65.47 51.1281C66.87 51.5281 68.47 51.6281 70.27 51.6281C71.77 51.6281 73.27 51.6281 74.67 51.6281C74.17 51.0281 73.87 50.3281 73.77 49.7281C71.67 50.5281 67.47 50.2281 65.57 48.1281ZM66.77 59.2281C66.27 59.0281 65.87 58.7281 65.47 58.4281C64.97 58.8281 64.47 59.2281 63.97 59.5281C63.97 59.5281 63.97 59.5281 63.87 59.5281C62.97 60.3281 62.17 61.0281 61.57 61.7281C61.57 61.7281 61.57 61.7281 61.47 61.8281C61.17 62.1281 60.97 62.4281 60.77 62.8281C60.77 62.8281 60.77 62.9281 60.67 62.9281C59.87 64.2281 59.47 65.3281 59.27 66.4281C58.97 67.9281 59.17 69.9281 58.27 71.2281C59.67 71.1281 60.07 70.7281 60.87 69.9281C60.27 66.1281 62.97 61.2281 66.77 59.2281ZM67.27 66.1281C67.17 66.2281 67.07 66.4281 66.97 66.5281C66.17 68.1281 67.07 69.4281 67.97 69.4281C70.27 69.4281 70.07 66.3281 67.27 66.1281ZM63.17 59.3281C61.97 58.3281 60.57 57.3281 59.87 55.8281C59.77 56.6281 59.77 57.4281 59.97 58.1281C60.27 59.3281 60.87 60.3281 61.37 61.0281C61.87 60.5281 62.47 59.9281 63.17 59.3281ZM60.57 73.7281C60.67 74.7281 60.77 75.7281 60.57 76.7281C61.67 76.6281 62.17 76.3281 62.77 75.7281C61.97 75.1281 61.27 74.5281 60.57 73.7281ZM60.17 60.4281L58.87 61.1281L59.57 62.6281C59.87 62.5281 60.07 62.4281 60.37 62.3281C60.57 62.1281 60.77 61.8281 60.97 61.5281C60.67 61.2281 60.47 60.8281 60.17 60.4281ZM56.27 66.8281C56.27 67.1281 56.27 67.4281 56.37 67.7281C57.07 67.2281 58.17 66.5281 58.77 66.3281C58.97 65.4281 59.27 64.5281 59.77 63.5281C59.67 63.5281 59.67 63.6281 59.57 63.6281C57.97 64.4281 56.57 66.2281 56.27 66.8281ZM56.37 62.2281C56.27 63.3281 56.17 64.4281 56.17 65.5281C56.47 65.0281 56.97 64.5281 57.47 64.0281L56.37 62.2281ZM56.77 59.9281C56.67 60.3281 56.57 60.8281 56.57 61.2281L58.07 63.7281C58.37 63.5281 58.57 63.3281 58.87 63.1281C57.67 60.5281 57.37 61.1281 59.87 59.9281C59.67 59.5281 59.57 59.1281 59.37 58.7281C58.77 58.8281 57.67 59.2281 56.77 59.9281ZM60.77 50.7281C59.07 53.2281 57.77 56.0281 57.07 58.9281C57.87 58.4281 58.67 58.1281 59.27 57.9281C59.07 56.8281 59.07 55.7281 59.57 54.4281C59.77 54.0281 60.17 54.0281 60.27 54.5281C60.57 56.3281 62.37 57.7281 63.77 58.8281C64.07 58.5281 64.47 58.2281 64.87 58.0281C62.77 56.5281 61.17 54.3281 60.77 50.7281ZM63.27 47.5281C62.87 47.9281 62.47 48.3281 62.17 48.8281C62.87 49.8281 63.77 50.4281 64.77 50.9281C64.67 50.0281 64.67 48.8281 64.87 48.0281L63.27 47.5281ZM83.37 45.2281C83.07 45.4281 82.67 45.5281 82.17 45.5281C82.07 46.5281 81.87 47.6281 82.07 48.6281L83.97 46.6281C83.57 46.1281 83.37 45.6281 83.37 45.2281ZM81.17 47.3281C80.67 47.2281 80.07 47.0281 79.87 46.4281C79.77 46.2281 80.57 46.3281 80.67 46.3281C80.87 46.3281 81.07 46.3281 81.27 46.2281C81.27 45.8281 81.37 45.4281 81.47 45.0281C81.47 44.9281 81.47 44.7281 81.57 44.6281C81.67 44.1281 82.37 44.2281 82.27 44.7281C84.37 44.5281 83.97 41.5281 81.77 42.0281C81.27 42.1281 81.17 41.4281 81.67 41.3281C82.17 41.2281 82.57 41.2281 82.97 41.3281C82.77 38.3281 78.07 40.1281 80.77 42.4281C81.17 42.7281 80.67 43.3281 80.27 42.9281C79.77 42.5281 79.47 42.1281 79.37 41.7281C77.77 42.0281 78.17 44.0281 79.27 44.3281V44.2281C79.37 43.7281 80.07 43.9281 79.97 44.4281L79.87 44.8281L78.07 51.8281C78.37 51.8281 78.67 51.9281 78.97 51.9281L81.47 49.2281C81.27 48.6281 81.17 48.0281 81.17 47.3281ZM84.77 49.8281C84.37 49.3281 84.27 48.5281 84.37 47.8281C84.47 47.5281 84.77 48.0281 84.87 48.1281C85.07 48.3281 85.37 48.4281 85.67 48.6281C86.27 47.7281 86.87 46.9281 87.47 46.0281C88.17 45.1281 88.87 44.1281 89.67 43.2281C88.47 41.7281 86.37 42.6281 86.97 44.9281C87.07 45.4281 86.37 45.5281 86.27 45.1281C86.17 44.6281 86.07 44.1281 86.17 43.7281C84.57 43.2281 83.47 44.6281 84.47 46.0281C84.77 45.7281 85.27 46.2281 84.97 46.5281L82.17 49.5281L82.07 49.6281L79.87 52.0281C80.87 52.2281 81.87 52.4281 82.87 52.8281C83.37 51.8281 84.07 50.8281 84.77 49.8281ZM81.57 69.8281C85.57 68.2281 86.77 65.0281 86.57 62.5281C85.67 63.8281 84.77 65.1281 83.97 66.4281C83.17 67.5281 82.37 68.6281 81.57 69.8281ZM89.47 60.7281C91.17 59.0281 91.67 57.1281 91.67 55.4281C90.77 56.6281 89.87 57.8281 88.97 59.0281C89.17 59.6281 89.37 60.1281 89.47 60.7281ZM94.67 54.3281C96.47 52.8281 97.17 51.3281 97.17 49.4281C96.17 50.3281 95.27 51.2281 94.37 52.2281C94.47 53.0281 94.57 53.7281 94.67 54.3281ZM94.57 57.2281C98.27 55.5281 99.77 51.5281 99.47 47.4281C98.87 47.8281 98.27 48.3281 97.77 48.8281C97.97 51.3281 97.07 53.3281 94.67 55.1281C94.67 55.9281 94.67 56.6281 94.57 57.2281ZM80.17 72.6281C84.37 72.2281 88.07 68.9281 88.87 64.4281V64.3281C88.97 63.4281 89.07 62.5281 88.97 61.5281V61.4281C88.87 60.8281 88.77 60.3281 88.57 59.7281C88.17 60.3281 87.67 60.9281 87.27 61.6281C87.87 64.8281 86.47 69.2281 80.97 70.8281C80.57 71.4281 80.07 72.0281 79.57 72.6281C79.77 72.6281 79.97 72.6281 80.17 72.6281ZM64.77 85.3281C64.87 85.5281 64.97 85.6281 64.97 85.7281C66.37 84.9281 67.67 84.0281 68.97 82.9281C68.97 82.9281 68.97 82.9281 69.07 82.9281C69.67 82.4281 70.27 81.9281 70.87 81.4281L70.97 81.3281C71.57 80.8281 72.07 80.2281 72.67 79.7281C72.67 79.7281 72.67 79.6281 72.77 79.6281C73.47 78.9281 74.27 78.1281 74.97 77.3281L75.07 77.2281C75.67 76.5281 76.37 75.7281 76.97 75.0281C76.97 74.9281 77.07 74.9281 77.07 74.9281C77.57 74.2281 78.17 73.5281 78.67 72.8281C78.67 72.7281 78.67 72.8281 78.77 72.7281C79.37 71.9281 79.97 71.1281 80.47 70.3281C80.47 70.3281 80.47 70.2281 80.57 70.2281C82.67 67.3281 84.67 64.3281 86.67 61.3281C86.67 61.3281 86.67 61.2281 86.77 61.2281C87.37 60.4281 87.87 59.5281 88.47 58.7281C88.47 58.7281 88.47 58.6281 88.57 58.6281C89.57 57.2281 90.57 55.9281 91.57 54.6281C91.67 54.5281 91.77 54.4281 91.87 54.2281C91.87 54.2281 91.87 54.1281 91.97 54.1281C92.57 53.4281 93.17 52.6281 93.77 51.9281C93.77 51.9281 93.77 51.8281 93.87 51.8281C94.97 50.6281 96.17 49.4281 97.27 48.3281L97.37 48.2281C98.17 47.5281 98.87 46.9281 99.67 46.4281L99.77 46.3281L99.87 46.2281C99.87 46.2281 99.87 46.2281 99.97 46.2281C100.07 46.1281 100.17 46.0281 100.27 46.0281L99.57 44.0281C99.17 44.3281 98.77 44.6281 98.47 44.9281C98.47 44.9281 98.47 44.9281 98.37 45.0281C84.77 56.3281 79.07 74.4281 64.17 84.3281C64.37 84.6281 64.57 84.9281 64.77 85.3281ZM77.57 86.6281C77.97 86.7281 78.27 86.7281 78.57 86.7281C79.47 86.7281 80.27 86.4281 80.97 85.9281C81.77 85.2281 82.27 84.2281 82.27 83.1281C82.27 82.5281 82.17 82.0281 81.97 81.6281V81.5281C81.37 80.3281 80.07 79.4281 78.67 79.4281C78.47 79.4281 78.27 79.4281 78.17 79.4281H78.07C77.37 79.5281 76.77 79.8281 76.27 80.2281H76.17C75.37 80.9281 74.87 81.9281 74.87 83.0281C74.87 84.7281 75.97 86.2281 77.57 86.6281ZM67.97 100.128C69.07 99.7281 70.07 99.2281 70.87 98.7281L70.97 98.6281C71.77 98.1281 72.47 97.5281 73.17 96.9281C73.17 96.9281 73.17 96.8281 73.27 96.8281C76.47 93.6281 77.37 89.5281 77.27 87.2281C76.57 87.0281 75.87 86.5281 75.37 86.0281C75.77 90.1281 74.47 95.1281 68.37 98.1281C68.27 98.2281 68.27 98.2281 68.17 98.2281C68.17 98.2281 68.07 98.2281 67.97 98.2281C66.97 97.9281 65.87 97.3281 64.97 96.7281C64.87 96.6281 64.87 96.6281 64.77 96.5281C63.97 95.9281 63.27 95.1281 62.77 94.3281C62.67 94.2281 62.67 94.2281 62.67 94.1281C61.47 92.0281 61.67 89.6281 65.07 87.6281C64.87 87.1281 64.67 86.6281 64.47 86.1281C57.47 90.7281 60.17 96.5281 67.97 100.128ZM71.17 99.3281C70.47 99.7281 69.67 100.128 68.87 100.528C72.97 102.228 78.27 103.328 83.87 103.228C80.57 101.928 74.37 100.028 71.17 99.3281ZM73.57 97.5281C73.07 97.9281 72.57 98.4281 72.07 98.7281C76.07 99.6281 83.17 101.928 85.67 103.028C87.17 102.928 88.77 102.728 90.27 102.528C85.97 101.228 77.37 98.5281 73.57 97.5281ZM77.87 87.4281C77.87 89.8281 77.07 93.8281 74.07 97.0281C78.47 98.1281 88.07 101.128 91.57 102.428C92.07 102.328 92.57 102.228 92.97 102.128C92.37 99.3281 92.37 95.2281 93.77 90.7281C89.77 90.4281 85.27 89.2281 81.07 86.6281C80.37 87.1281 79.47 87.5281 78.47 87.5281C78.37 87.4281 78.07 87.4281 77.87 87.4281ZM77.87 77.7281C77.97 78.0281 78.07 78.3281 78.17 78.6281C78.27 78.6281 78.47 78.6281 78.57 78.6281C79.27 78.6281 79.97 78.8281 80.57 79.1281C80.97 77.1281 79.07 76.3281 77.87 77.7281ZM80.47 74.1281C83.67 74.9281 84.77 78.9281 82.77 81.3281C82.97 81.8281 83.07 82.4281 83.07 83.0281C83.07 84.2281 82.57 85.3281 81.87 86.1281C88.07 89.9281 95.07 90.6281 99.67 89.6281C104.47 88.6281 106.17 86.0281 103.17 83.2281C102.67 82.7281 104.07 81.4281 105.17 81.3281C105.27 80.6281 104.97 80.1281 104.47 79.8281C102.97 79.7281 100.57 80.4281 98.97 80.8281C98.87 81.1281 98.37 81.2281 98.27 80.8281C98.07 80.3281 98.57 79.5281 98.67 79.3281C98.87 78.8281 99.47 79.1281 99.27 79.6281C99.17 79.7281 99.07 79.9281 99.07 80.1281C100.67 79.7281 102.87 79.0281 104.47 79.1281C104.87 78.8281 105.87 78.1281 105.67 77.5281C105.57 77.4281 105.47 77.2281 105.27 76.9281C104.47 75.9281 104.87 75.2281 105.57 74.4281C104.37 74.2281 102.77 74.4281 101.97 75.3281C101.47 75.8281 100.67 74.4281 100.57 74.2281C100.27 73.4281 100.27 72.4281 101.47 71.3281C101.77 71.0281 102.27 71.5281 101.97 71.8281C101.07 72.7281 100.77 73.6281 101.67 74.5281C102.97 73.5281 104.77 73.3281 106.27 73.7281C108.97 73.5281 108.77 72.4281 108.07 70.5281C107.77 69.7281 107.37 68.8281 107.07 67.8281C106.47 66.3281 105.37 63.2281 104.27 59.8281C101.17 58.6281 96.77 59.3281 93.47 60.8281C92.67 62.1281 91.47 63.3281 89.77 64.5281C88.97 69.1281 85.17 72.6281 80.77 73.1281L80.47 74.1281ZM79.67 74.0281L79.77 73.3281C79.47 73.3281 79.27 73.3281 78.97 73.3281C78.47 74.0281 77.97 74.6281 77.47 75.2281C77.47 75.8281 77.57 76.3281 77.67 76.8281C79.17 75.5281 82.07 76.4281 81.17 79.4281C81.67 79.7281 82.07 80.2281 82.37 80.6281C83.97 78.4281 82.57 74.8281 79.47 74.7281C78.97 74.7281 78.97 74.0281 79.47 74.0281C79.57 74.0281 79.67 74.0281 79.67 74.0281ZM92.07 48.4281C92.07 48.8281 91.77 49.1281 91.37 49.1281C90.97 49.1281 90.67 48.8281 90.67 48.4281C90.67 48.0281 90.97 47.7281 91.37 47.7281C91.77 47.8281 92.07 48.1281 92.07 48.4281ZM93.97 46.2281C93.97 46.6281 93.67 46.9281 93.27 46.9281C92.87 46.9281 92.57 46.6281 92.57 46.2281C92.57 45.8281 92.87 45.5281 93.27 45.5281C93.67 45.5281 93.97 45.8281 93.97 46.2281ZM90.27 50.8281C90.27 51.1281 89.97 51.4281 89.67 51.4281C89.37 51.4281 89.07 51.1281 89.07 50.8281C89.07 50.5281 89.37 50.2281 89.67 50.2281C89.97 50.2281 90.27 50.5281 90.27 50.8281ZM69.87 44.4281C69.87 44.8281 69.57 45.1281 69.17 45.1281C68.77 45.1281 68.47 44.8281 68.47 44.4281C68.47 44.0281 68.77 43.7281 69.17 43.7281C69.57 43.7281 69.87 44.0281 69.87 44.4281ZM78.57 84.3281C79.27 84.3281 79.87 83.7281 79.87 83.0281C79.87 82.3281 79.27 81.7281 78.57 81.7281C77.87 81.7281 77.27 82.3281 77.27 83.0281C77.27 83.7281 77.87 84.3281 78.57 84.3281ZM78.57 85.0281C77.47 85.0281 76.57 84.1281 76.57 83.0281C76.57 81.9281 77.47 81.0281 78.57 81.0281C79.67 81.0281 80.57 81.9281 80.57 83.0281C80.57 84.1281 79.67 85.0281 78.57 85.0281ZM95.57 65.9281C95.37 65.3281 95.27 64.6281 95.37 63.8281C94.27 64.1281 93.27 64.6281 92.37 65.3281C92.67 65.4281 93.17 65.5281 93.77 65.7281C94.27 65.8281 94.87 65.9281 95.57 65.9281ZM96.07 63.6281C95.97 64.6281 96.07 65.3281 96.27 65.9281C96.77 65.9281 97.17 65.9281 97.67 65.8281C97.47 65.5281 97.27 65.0281 97.27 64.6281C97.27 64.1281 97.27 63.7281 97.47 63.3281C97.07 63.4281 96.57 63.5281 96.07 63.6281ZM99.07 62.5281C99.57 62.5281 100.07 62.4281 100.37 62.5281C100.57 62.5281 100.67 62.7281 100.67 62.9281C100.67 63.3281 100.07 63.6281 99.67 63.7281C99.77 63.9281 99.77 64.1281 99.77 64.4281C99.87 65.4281 99.47 66.3281 98.77 66.5281C98.77 66.5281 98.77 66.5281 98.67 66.5281C97.87 66.6281 96.97 66.7281 95.97 66.7281C95.87 66.7281 95.87 66.7281 95.77 66.7281C94.27 66.7281 92.77 66.4281 91.57 65.9281C91.27 66.3281 90.67 65.8281 91.07 65.4281C91.07 65.4281 91.17 65.3281 91.27 65.2281C91.27 65.2281 91.27 65.2281 91.37 65.1281C92.27 64.4281 94.67 62.6281 99.07 62.5281Z" fill="#1D1D1B"/>
<path d="M98.47 101.128C98.37 101.128 98.37 101.128 98.47 101.128ZM98.47 101.128C96.17 102.028 93.97 102.628 91.77 103.128H91.67C89.67 103.528 87.67 103.828 85.67 103.928H85.57C78.97 104.328 72.77 103.028 68.07 100.928L67.87 100.828C67.87 100.828 67.77 100.828 67.77 100.728C59.87 97.0281 56.27 90.5281 64.07 85.3281C63.27 84.0281 62.27 82.7281 61.17 81.4281C60.87 81.0281 60.47 80.5281 60.17 80.1281C59.57 81.7281 59.47 82.8281 60.47 84.2281C60.57 84.4281 60.57 84.5281 60.47 84.7281L54.97 91.3281C54.87 91.5281 54.57 91.5281 54.47 91.3281C26.87 61.0281 58.37 15.1281 96.37 28.3281C96.57 28.4281 96.67 28.6281 96.57 28.8281L90.57 38.7281C90.47 38.8281 90.37 38.9281 90.17 38.9281C88.27 38.6281 87.17 38.7281 86.37 39.4281C88.07 39.7281 89.87 40.1281 91.67 40.8281C93.27 39.0281 95.07 37.3281 96.87 35.8281C96.87 35.8281 96.97 35.8281 96.97 35.7281C97.07 35.6281 97.17 35.6281 97.27 35.7281C97.37 35.7281 97.47 35.8281 97.47 35.9281V36.0281L100.87 46.2281C100.87 46.3281 100.87 46.4281 100.87 46.5281C100.87 46.6281 100.77 46.7281 100.67 46.7281C100.57 46.8281 100.47 46.8281 100.37 46.9281C101.07 49.0281 105.97 63.8281 107.47 67.8281C107.97 69.0281 108.97 71.3281 108.97 72.6281C108.97 73.9281 108.07 74.6281 106.17 74.7281C105.17 75.6281 105.07 76.0281 105.57 76.6281C106.57 78.0281 106.07 78.6281 104.87 79.5281C105.97 80.4281 105.77 82.0281 105.17 82.0281C104.37 82.0281 104.07 82.3281 103.57 82.9281C107.07 86.3281 104.17 89.3281 99.47 90.3281C97.97 90.6281 96.27 90.8281 94.47 90.7281C94.47 90.7281 94.47 90.7281 94.47 90.8281C93.87 92.8281 93.47 94.7281 93.37 96.4281C96.47 97.3281 100.17 98.4281 101.17 99.2281L101.27 99.3281C101.37 99.4281 101.37 99.5281 101.37 99.6281C101.37 99.7281 101.27 99.8281 101.17 99.8281C101.17 99.8281 101.07 99.8281 101.07 99.9281C100.27 100.328 99.37 100.728 98.47 101.128ZM97.37 100.728C96.47 100.328 94.97 99.9281 93.37 99.5281C93.47 100.428 93.57 101.228 93.67 101.928C94.97 101.528 96.17 101.128 97.37 100.728ZM93.37 98.7281C95.37 99.2281 97.47 99.8281 98.27 100.328C98.97 100.028 99.67 99.7281 100.37 99.4281C99.17 98.7281 96.17 97.8281 93.47 97.0281C93.37 97.6281 93.37 98.2281 93.37 98.7281ZM65.77 87.5281V87.6281C65.97 88.5281 66.07 89.4281 66.07 90.4281C68.27 88.9281 67.67 86.4281 67.07 85.2281C66.47 85.6281 65.97 85.9281 65.37 86.3281C65.47 86.7281 65.57 87.1281 65.77 87.5281ZM65.17 88.2281C63.57 89.2281 62.87 90.3281 62.77 91.5281C63.77 91.4281 64.67 91.1281 65.27 90.8281C65.37 89.9281 65.27 89.0281 65.17 88.2281ZM62.67 92.2281C62.67 92.7281 62.87 93.1281 63.07 93.6281C68.07 93.5281 71.77 88.6281 69.07 83.7281C68.57 84.1281 68.07 84.5281 67.57 84.8281C68.57 86.7281 69.47 91.5281 62.67 92.2281ZM63.57 94.3281C63.97 94.9281 64.47 95.4281 65.07 95.9281C72.37 93.8281 73.87 87.7281 70.97 82.2281C70.57 82.6281 70.17 82.9281 69.67 83.3281C72.77 88.6281 68.77 93.9281 63.57 94.3281ZM65.77 96.4281C66.47 96.8281 67.27 97.2281 68.07 97.5281C77.07 93.0281 74.87 83.7281 72.87 80.5281C72.47 80.9281 71.97 81.3281 71.57 81.7281C74.57 87.5281 73.17 94.0281 65.77 96.4281ZM93.77 60.0281C96.87 58.8281 100.77 58.2281 103.77 59.1281C102.47 55.1281 101.07 51.0281 100.27 48.6281C100.27 52.6281 98.37 56.4281 94.47 58.0281C94.27 58.7281 94.07 59.4281 93.77 60.0281ZM92.67 60.6281C92.67 60.6281 92.67 60.5281 92.77 60.5281C93.27 59.7281 93.67 58.8281 93.87 57.8281V57.7281C94.07 56.9281 94.07 56.0281 94.07 55.1281V55.0281C94.07 54.4281 93.97 53.7281 93.77 53.0281C93.27 53.5281 92.87 54.0281 92.47 54.6281C92.67 56.9281 92.17 59.4281 89.67 61.6281C89.77 62.3281 89.77 63.0281 89.67 63.7281C90.97 62.7281 91.97 61.7281 92.67 60.6281ZM74.27 81.8281C74.47 81.0281 74.87 80.4281 75.47 79.8281C75.17 79.3281 75.07 78.7281 74.97 78.2281C74.47 78.8281 73.97 79.3281 73.37 79.9281C73.67 80.5281 73.97 81.1281 74.27 81.8281ZM75.97 79.4281C76.37 79.1281 76.87 78.9281 77.37 78.7281C77.07 78.0281 76.87 77.1281 76.77 76.1281C76.37 76.6281 75.87 77.1281 75.47 77.6281C75.57 78.2281 75.77 78.8281 75.97 79.4281ZM58.97 82.1281C58.97 81.3281 59.27 80.4281 59.67 79.4281C57.87 76.8281 56.27 73.4281 55.77 68.4281V68.3281C55.77 67.8281 55.67 67.3281 55.67 66.8281V66.7281C55.67 66.5281 55.67 66.4281 55.67 66.2281C55.57 64.6281 55.67 62.9281 55.97 61.3281V61.2281C56.07 60.7281 56.17 60.2281 56.27 59.7281V59.6281C57.37 55.0281 59.67 50.6281 62.97 47.0281L63.07 46.9281C64.07 45.9281 65.17 44.9281 66.27 44.0281C68.07 42.6281 70.07 41.5281 72.27 40.7281C72.27 40.7281 72.27 40.7281 72.37 40.7281C75.07 39.7281 78.07 39.1281 81.27 39.1281C81.47 39.1281 81.67 39.1281 81.87 39.1281C83.07 39.1281 84.27 39.2281 85.57 39.4281C86.17 38.7281 86.77 38.3281 87.67 38.2281C87.57 38.2281 87.57 38.2281 87.47 38.1281C85.87 37.7281 84.37 37.4281 82.77 37.3281C74.57 36.8281 66.57 40.4281 61.17 46.4281C60.07 47.6281 59.07 48.9281 58.17 50.3281C58.17 50.3281 58.17 50.3281 58.17 50.4281C57.37 51.7281 56.67 53.1281 56.07 54.5281C55.47 55.9281 54.97 57.4281 54.67 58.9281C53.27 64.8281 53.77 71.3281 56.97 77.9281C57.27 79.3281 58.07 80.7281 58.97 82.1281ZM60.27 79.1281L60.37 79.2281C60.67 79.6281 60.87 79.9281 61.17 80.3281C62.57 79.2281 63.87 78.1281 65.17 76.9281C64.57 76.6281 63.97 76.3281 63.47 76.0281C62.47 77.0281 61.87 77.4281 60.17 77.4281C59.87 77.4281 59.77 77.2281 59.87 76.9281C60.17 76.0281 59.87 73.7281 59.87 72.5281C59.77 72.3281 59.57 72.0281 59.47 71.8281C59.07 71.9281 58.47 71.9281 57.77 71.9281C57.37 71.9281 57.27 71.6281 57.57 71.3281C58.67 70.3281 58.47 68.9281 58.77 67.0281C58.17 67.3281 56.97 68.1281 56.57 68.4281C56.97 73.3281 58.57 76.6281 60.27 79.1281ZM63.77 83.7281C78.37 73.9281 84.17 56.2281 97.27 45.0281L95.37 44.6281C94.97 44.5281 94.97 44.5281 95.07 44.1281L95.37 41.4281C83.17 53.7281 76.47 73.9281 62.87 82.5281C63.17 82.9281 63.47 83.3281 63.77 83.7281ZM97.67 39.1281C97.07 39.6281 96.57 40.1281 96.07 40.6281L95.67 44.0281L97.87 44.5281C98.27 44.2281 98.67 43.8281 99.17 43.5281L98.87 42.5281C98.27 42.7281 97.57 42.4281 97.27 41.7281C97.07 41.1281 97.37 40.4281 98.07 40.1281L97.67 39.1281ZM65.97 77.1281C64.57 78.4281 63.17 79.7281 61.57 80.9281L61.67 81.0281C61.87 81.3281 62.17 81.6281 62.37 81.9281C69.57 77.4281 74.77 69.6281 79.97 61.4281C84.47 54.2281 89.27 46.2281 95.37 40.2281L95.47 40.1281C96.07 39.5281 96.77 38.9281 97.37 38.3281L96.87 36.8281C94.47 38.8281 92.37 41.0281 90.27 43.4281C90.27 43.4281 90.27 43.5281 90.17 43.5281C86.27 48.2281 82.97 53.5281 79.87 58.4281C78.17 61.0281 76.57 63.6281 74.77 66.2281C74.77 66.2281 74.77 66.3281 74.67 66.3281C73.97 67.3281 73.17 68.3281 72.47 69.4281C72.47 69.4281 72.47 69.5281 72.37 69.5281C71.87 70.2281 71.27 70.9281 70.67 71.6281C70.67 71.6281 70.67 71.7281 70.57 71.7281C69.77 72.7281 68.87 73.7281 67.97 74.7281C67.97 74.7281 67.97 74.8281 67.87 74.8281C67.47 75.5281 66.67 76.3281 65.97 77.1281ZM65.67 76.4281C66.17 75.9281 66.77 75.3281 67.27 74.8281C63.97 74.3281 62.07 72.7281 61.37 70.7281C60.87 71.1281 60.57 71.4281 60.17 71.6281C60.27 71.8281 60.37 72.0281 60.47 72.2281C60.47 72.2281 60.57 72.3281 60.57 72.4281C61.87 74.5281 63.37 75.2281 65.67 76.4281ZM67.77 74.1281C68.27 73.5281 68.87 72.9281 69.37 72.3281C63.27 74.0281 59.37 64.4281 69.87 60.5281C69.07 60.2281 68.37 60.0281 67.67 59.6281C60.87 62.6281 58.57 72.9281 67.77 74.1281ZM70.37 71.1281C70.87 70.4281 71.47 69.8281 71.97 69.1281C72.17 67.3281 71.77 65.3281 69.47 64.3281C68.87 64.6281 68.27 65.0281 67.77 65.5281C71.07 66.0281 70.97 70.2281 67.97 70.2281C65.47 70.2281 65.57 67.1281 66.67 65.6281C66.67 65.6281 66.67 65.5281 66.77 65.5281C67.27 64.8281 68.07 64.2281 69.17 63.6281C69.17 63.6281 69.27 63.6281 69.27 63.5281C70.07 63.1281 71.07 62.8281 72.17 62.5281H72.27C72.97 62.3281 73.67 62.2281 74.57 62.1281C73.97 61.8281 73.17 61.6281 72.47 61.3281C71.97 61.1281 71.47 61.0281 70.87 60.8281C59.77 64.4281 64.27 74.3281 70.37 71.1281ZM72.67 68.0281C73.17 67.3281 73.67 66.6281 74.17 65.9281C74.07 65.2281 73.27 63.9281 72.37 63.2281C71.67 63.4281 70.97 63.6281 70.27 63.9281C72.07 64.9281 72.67 66.5281 72.67 68.0281ZM74.67 65.2281C75.17 64.4281 75.67 63.7281 76.17 62.9281C76.07 62.8281 75.87 62.7281 75.77 62.6281C75.07 62.7281 74.17 62.8281 73.17 63.0281C73.87 63.7281 74.37 64.5281 74.67 65.2281ZM76.57 62.4281C77.07 61.6281 77.57 60.8281 78.17 60.0281C76.17 59.5281 72.67 59.8281 70.37 59.8281C71.17 60.1281 71.97 60.3281 72.77 60.6281C73.97 61.0281 75.07 61.4281 76.07 62.0281C76.07 62.0281 76.17 62.0281 76.17 62.1281C76.27 62.2281 76.47 62.3281 76.57 62.4281ZM78.57 59.3281C78.97 58.7281 79.27 58.1281 79.67 57.6281C77.47 56.9281 73.97 57.1281 71.77 57.1281C69.17 57.1281 66.37 57.2281 64.27 56.6281C65.37 57.6281 66.77 58.4281 68.27 59.0281C69.37 59.2281 72.07 59.0281 72.97 59.0281C74.97 59.0281 77.17 59.0281 78.57 59.3281ZM80.07 57.0281C80.37 56.5281 80.67 56.0281 80.97 55.5281C78.17 54.4281 73.67 54.8281 70.77 54.8281C67.47 54.8281 64.07 54.6281 61.87 52.8281C62.17 53.9281 62.67 54.8281 63.27 55.6281C66.47 57.0281 72.67 56.3281 76.37 56.4281C77.77 56.5281 79.07 56.6281 80.07 57.0281ZM81.37 54.9281C81.67 54.4281 81.97 53.9281 82.37 53.4281C81.27 53.0281 80.17 52.8281 79.07 52.6281H78.97C76.17 52.2281 73.37 52.3281 70.37 52.3281C68.47 52.3281 66.77 52.2281 65.17 51.8281H65.07C63.77 51.4281 62.67 50.7281 61.77 49.4281C61.67 49.5281 61.57 49.6281 61.47 49.8281C61.47 50.4281 61.57 50.9281 61.67 51.5281C63.47 53.9281 66.97 54.2281 70.87 54.2281C73.87 54.1281 78.47 53.7281 81.37 54.9281ZM90.07 42.7281C90.37 42.3281 90.77 41.9281 91.07 41.5281C89.17 40.9281 87.37 40.4281 85.57 40.2281H85.47C84.67 40.1281 83.87 40.0281 83.07 39.9281C83.37 40.3281 83.57 41.0281 83.57 41.8281C83.97 42.2281 84.27 42.7281 84.27 43.2281C84.77 42.9281 85.47 42.8281 86.27 43.0281C86.87 41.6281 88.87 41.3281 90.07 42.7281ZM50.47 85.2281L56.97 80.3281C56.67 79.7281 56.37 79.2281 56.07 78.6281L50.57 81.9281C50.17 82.1281 49.77 81.5281 50.17 81.3281L55.67 77.9281C55.47 77.4281 55.27 77.0281 55.07 76.5281L47.57 80.0281C48.47 81.8281 49.47 83.5281 50.47 85.2281ZM57.37 80.9281L50.87 85.8281C51.97 87.4281 53.17 89.0281 54.57 90.6281L59.67 84.5281C59.37 84.0281 58.97 83.6281 58.67 83.1281L53.77 87.9281C53.47 88.2281 52.97 87.7281 53.27 87.4281L58.27 82.5281C57.97 82.0281 57.67 81.4281 57.37 80.9281ZM47.47 79.4281L54.97 75.9281C54.77 75.4281 54.57 74.9281 54.47 74.4281L48.37 76.2281C47.87 76.3281 47.67 75.6281 48.17 75.5281L54.27 73.7281C54.07 73.0281 53.87 72.4281 53.77 71.7281L45.67 73.4281C45.97 75.5281 46.67 77.4281 47.47 79.4281ZM45.37 72.8281L53.47 71.1281C53.37 70.5281 53.27 69.9281 53.17 69.4281L46.67 70.0281C46.17 70.0281 46.17 69.3281 46.57 69.3281L53.07 68.7281C52.97 68.1281 52.97 67.4281 52.87 66.8281L44.57 66.6281C44.67 68.6281 44.97 70.7281 45.37 72.8281ZM44.57 65.8281L52.87 66.0281C52.87 65.4281 52.87 64.9281 52.87 64.3281L46.47 63.6281C45.97 63.5281 46.07 62.8281 46.57 62.9281L52.97 63.6281C52.97 62.9281 53.07 62.2281 53.17 61.5281L45.07 59.8281C44.77 61.8281 44.57 63.8281 44.57 65.8281ZM45.17 59.1281L53.27 60.8281C53.37 60.2281 53.47 59.7281 53.57 59.2281L47.37 57.2281C46.87 57.1281 47.17 56.4281 47.57 56.5281L53.67 58.4281C53.77 57.9281 53.97 57.3281 54.07 56.8281L46.57 53.1281C46.07 55.0281 45.47 57.0281 45.17 59.1281ZM46.97 52.4281L54.37 56.1281C54.57 55.6281 54.77 55.0281 54.97 54.5281L49.27 51.0281C48.87 50.8281 49.27 50.1281 49.67 50.4281L55.27 53.8281C55.47 53.2281 55.77 52.7281 56.07 52.1281L49.37 47.0281C48.47 48.8281 47.67 50.6281 46.97 52.4281ZM49.67 46.5281L56.37 51.6281C56.57 51.2281 56.87 50.7281 57.17 50.3281L52.27 45.6281C51.97 45.3281 52.47 44.8281 52.77 45.1281L57.57 49.7281C57.97 49.1281 58.27 48.6281 58.67 48.1281L53.07 41.6281C51.87 43.1281 50.67 44.7281 49.67 46.5281ZM53.47 41.0281L59.07 47.5281C59.47 47.1281 59.77 46.6281 60.17 46.2281L55.97 40.5281C55.67 40.1281 56.27 39.7281 56.57 40.1281L60.67 45.7281C61.07 45.3281 61.47 44.8281 61.97 44.4281L57.57 36.8281C56.07 38.0281 54.77 39.4281 53.47 41.0281ZM58.07 36.2281L62.47 43.8281C62.87 43.5281 63.27 43.1281 63.67 42.8281L60.77 36.1281C60.57 35.7281 61.27 35.4281 61.47 35.8281L64.27 42.3281C64.77 41.9281 65.27 41.5281 65.87 41.2281L62.97 32.5281C61.27 33.7281 59.57 34.9281 58.07 36.2281ZM63.57 32.2281L66.47 40.9281C66.97 40.6281 67.37 40.3281 67.87 40.1281L66.17 32.8281C66.07 32.3281 66.77 32.2281 66.87 32.6281L68.57 39.6281C69.07 39.3281 69.57 39.1281 70.07 38.8281L68.77 29.4281C66.97 30.3281 65.27 31.2281 63.57 32.2281ZM69.47 29.2281L70.77 38.6281C71.27 38.4281 71.87 38.2281 72.47 38.0281L72.17 30.2281C72.17 29.7281 72.87 29.7281 72.87 30.2281L73.07 37.8281C73.57 37.6281 74.17 37.5281 74.77 37.3281L75.47 27.5281C73.37 27.9281 71.37 28.5281 69.47 29.2281ZM76.17 27.4281L75.47 37.2281C76.07 37.1281 76.77 36.9281 77.37 36.9281L78.57 29.2281C78.67 28.7281 79.37 28.8281 79.27 29.3281L78.17 36.8281C78.67 36.7281 79.17 36.7281 79.67 36.7281L82.17 26.9281C80.17 26.8281 78.17 27.0281 76.17 27.4281ZM82.97 26.8281L80.47 36.6281C81.07 36.6281 81.77 36.6281 82.37 36.6281L84.77 28.9281C84.87 28.4281 85.57 28.7281 85.47 29.1281L83.07 36.6281C83.67 36.7281 84.27 36.7281 84.87 36.8281L88.97 27.2281C86.97 26.9281 84.97 26.8281 82.97 26.8281ZM89.67 27.4281L85.57 37.0281C86.07 37.1281 86.67 37.2281 87.17 37.4281L91.17 29.6281C91.37 29.2281 92.07 29.5281 91.77 29.9281L87.77 37.5281C88.47 37.7281 89.17 37.9281 89.87 38.2281L95.47 28.9281C93.57 28.2281 91.67 27.7281 89.67 27.4281ZM76.77 48.9281C76.77 49.0281 76.77 49.0281 76.67 49.1281C76.67 49.2281 76.57 49.2281 76.47 49.2281C76.47 49.2281 76.47 49.2281 76.37 49.2281C75.77 49.3281 75.17 49.3281 74.57 49.2281C74.47 49.3281 74.47 49.3281 74.37 49.4281C74.47 50.1281 74.77 50.9281 75.57 51.7281C76.07 51.7281 76.67 51.7281 77.17 51.8281L78.77 45.3281C76.97 44.8281 76.57 41.7281 78.87 41.3281C78.87 40.8281 79.07 40.3281 79.37 40.0281C78.17 40.1281 76.97 40.2281 75.77 40.5281L76.07 44.2281V44.3281V44.7281C76.07 45.2281 75.37 45.2281 75.37 44.8281V44.5281L73.87 43.5281C73.47 43.8281 73.27 44.3281 73.27 44.8281C73.27 45.8281 74.07 46.6281 75.07 46.6281C75.27 46.6281 75.37 46.6281 75.57 46.5281V46.4281C75.57 45.9281 76.27 45.9281 76.27 46.3281V46.7281V46.8281L76.77 48.9281ZM74.17 42.3281L74.37 42.4281C74.37 42.4281 74.37 42.4281 74.47 42.4281L75.67 43.2281L75.37 40.3281C74.47 40.5281 73.57 40.8281 72.67 41.1281C70.77 43.1281 71.07 45.3281 72.17 46.7281L72.27 46.8281C73.17 47.9281 74.67 48.5281 76.07 48.3281L75.87 47.0281C75.67 47.0281 75.47 47.1281 75.27 47.1281C73.87 47.1281 72.77 46.0281 72.77 44.6281C72.77 43.9281 73.07 43.3281 73.57 42.8281C73.47 42.5281 73.77 42.1281 74.17 42.3281ZM73.77 48.9281C72.97 48.6281 72.27 48.1281 71.77 47.6281C69.27 48.2281 67.07 46.4281 66.27 44.8281C65.37 45.5281 64.57 46.2281 63.87 46.9281L65.37 47.3281C65.37 47.3281 65.37 47.3281 65.47 47.3281L65.87 47.4281C65.97 47.4281 65.97 47.4281 66.07 47.5281C66.17 47.5281 66.17 47.6281 66.17 47.6281C67.87 49.7281 72.17 49.7281 73.77 48.9281ZM71.27 46.9281C70.27 45.5281 70.07 43.7281 71.27 41.8281C69.67 42.5281 68.17 43.4281 66.87 44.4281C67.47 45.7281 69.27 47.2281 71.27 46.9281ZM65.57 48.1281C65.27 48.8281 65.27 50.3281 65.47 51.1281C66.87 51.5281 68.47 51.6281 70.27 51.6281C71.77 51.6281 73.27 51.6281 74.67 51.6281C74.17 51.0281 73.87 50.3281 73.77 49.7281C71.67 50.5281 67.47 50.2281 65.57 48.1281ZM66.77 59.2281C66.27 59.0281 65.87 58.7281 65.47 58.4281C64.97 58.8281 64.47 59.2281 63.97 59.5281C63.97 59.5281 63.97 59.5281 63.87 59.5281C62.97 60.3281 62.17 61.0281 61.57 61.7281C61.57 61.7281 61.57 61.7281 61.47 61.8281C61.17 62.1281 60.97 62.4281 60.77 62.8281C60.77 62.8281 60.77 62.9281 60.67 62.9281C59.87 64.2281 59.47 65.3281 59.27 66.4281C58.97 67.9281 59.17 69.9281 58.27 71.2281C59.67 71.1281 60.07 70.7281 60.87 69.9281C60.27 66.1281 62.97 61.2281 66.77 59.2281ZM67.27 66.1281C67.17 66.2281 67.07 66.4281 66.97 66.5281C66.17 68.1281 67.07 69.4281 67.97 69.4281C70.27 69.4281 70.07 66.3281 67.27 66.1281ZM63.17 59.3281C61.97 58.3281 60.57 57.3281 59.87 55.8281C59.77 56.6281 59.77 57.4281 59.97 58.1281C60.27 59.3281 60.87 60.3281 61.37 61.0281C61.87 60.5281 62.47 59.9281 63.17 59.3281ZM60.57 73.7281C60.67 74.7281 60.77 75.7281 60.57 76.7281C61.67 76.6281 62.17 76.3281 62.77 75.7281C61.97 75.1281 61.27 74.5281 60.57 73.7281ZM60.17 60.4281L58.87 61.1281L59.57 62.6281C59.87 62.5281 60.07 62.4281 60.37 62.3281C60.57 62.1281 60.77 61.8281 60.97 61.5281C60.67 61.2281 60.47 60.8281 60.17 60.4281ZM56.27 66.8281C56.27 67.1281 56.27 67.4281 56.37 67.7281C57.07 67.2281 58.17 66.5281 58.77 66.3281C58.97 65.4281 59.27 64.5281 59.77 63.5281C59.67 63.5281 59.67 63.6281 59.57 63.6281C57.97 64.4281 56.57 66.2281 56.27 66.8281ZM56.37 62.2281C56.27 63.3281 56.17 64.4281 56.17 65.5281C56.47 65.0281 56.97 64.5281 57.47 64.0281L56.37 62.2281ZM56.77 59.9281C56.67 60.3281 56.57 60.8281 56.57 61.2281L58.07 63.7281C58.37 63.5281 58.57 63.3281 58.87 63.1281C57.67 60.5281 57.37 61.1281 59.87 59.9281C59.67 59.5281 59.57 59.1281 59.37 58.7281C58.77 58.8281 57.67 59.2281 56.77 59.9281ZM60.77 50.7281C59.07 53.2281 57.77 56.0281 57.07 58.9281C57.87 58.4281 58.67 58.1281 59.27 57.9281C59.07 56.8281 59.07 55.7281 59.57 54.4281C59.77 54.0281 60.17 54.0281 60.27 54.5281C60.57 56.3281 62.37 57.7281 63.77 58.8281C64.07 58.5281 64.47 58.2281 64.87 58.0281C62.77 56.5281 61.17 54.3281 60.77 50.7281ZM63.27 47.5281C62.87 47.9281 62.47 48.3281 62.17 48.8281C62.87 49.8281 63.77 50.4281 64.77 50.9281C64.67 50.0281 64.67 48.8281 64.87 48.0281L63.27 47.5281ZM83.37 45.2281C83.07 45.4281 82.67 45.5281 82.17 45.5281C82.07 46.5281 81.87 47.6281 82.07 48.6281L83.97 46.6281C83.57 46.1281 83.37 45.6281 83.37 45.2281ZM81.17 47.3281C80.67 47.2281 80.07 47.0281 79.87 46.4281C79.77 46.2281 80.57 46.3281 80.67 46.3281C80.87 46.3281 81.07 46.3281 81.27 46.2281C81.27 45.8281 81.37 45.4281 81.47 45.0281C81.47 44.9281 81.47 44.7281 81.57 44.6281C81.67 44.1281 82.37 44.2281 82.27 44.7281C84.37 44.5281 83.97 41.5281 81.77 42.0281C81.27 42.1281 81.17 41.4281 81.67 41.3281C82.17 41.2281 82.57 41.2281 82.97 41.3281C82.77 38.3281 78.07 40.1281 80.77 42.4281C81.17 42.7281 80.67 43.3281 80.27 42.9281C79.77 42.5281 79.47 42.1281 79.37 41.7281C77.77 42.0281 78.17 44.0281 79.27 44.3281V44.2281C79.37 43.7281 80.07 43.9281 79.97 44.4281L79.87 44.8281L78.07 51.8281C78.37 51.8281 78.67 51.9281 78.97 51.9281L81.47 49.2281C81.27 48.6281 81.17 48.0281 81.17 47.3281ZM84.77 49.8281C84.37 49.3281 84.27 48.5281 84.37 47.8281C84.47 47.5281 84.77 48.0281 84.87 48.1281C85.07 48.3281 85.37 48.4281 85.67 48.6281C86.27 47.7281 86.87 46.9281 87.47 46.0281C88.17 45.1281 88.87 44.1281 89.67 43.2281C88.47 41.7281 86.37 42.6281 86.97 44.9281C87.07 45.4281 86.37 45.5281 86.27 45.1281C86.17 44.6281 86.07 44.1281 86.17 43.7281C84.57 43.2281 83.47 44.6281 84.47 46.0281C84.77 45.7281 85.27 46.2281 84.97 46.5281L82.17 49.5281L82.07 49.6281L79.87 52.0281C80.87 52.2281 81.87 52.4281 82.87 52.8281C83.37 51.8281 84.07 50.8281 84.77 49.8281ZM81.57 69.8281C85.57 68.2281 86.77 65.0281 86.57 62.5281C85.67 63.8281 84.77 65.1281 83.97 66.4281C83.17 67.5281 82.37 68.6281 81.57 69.8281ZM89.47 60.7281C91.17 59.0281 91.67 57.1281 91.67 55.4281C90.77 56.6281 89.87 57.8281 88.97 59.0281C89.17 59.6281 89.37 60.1281 89.47 60.7281ZM94.67 54.3281C96.47 52.8281 97.17 51.3281 97.17 49.4281C96.17 50.3281 95.27 51.2281 94.37 52.2281C94.47 53.0281 94.57 53.7281 94.67 54.3281ZM94.57 57.2281C98.27 55.5281 99.77 51.5281 99.47 47.4281C98.87 47.8281 98.27 48.3281 97.77 48.8281C97.97 51.3281 97.07 53.3281 94.67 55.1281C94.67 55.9281 94.67 56.6281 94.57 57.2281ZM80.17 72.6281C84.37 72.2281 88.07 68.9281 88.87 64.4281V64.3281C88.97 63.4281 89.07 62.5281 88.97 61.5281V61.4281C88.87 60.8281 88.77 60.3281 88.57 59.7281C88.17 60.3281 87.67 60.9281 87.27 61.6281C87.87 64.8281 86.47 69.2281 80.97 70.8281C80.57 71.4281 80.07 72.0281 79.57 72.6281C79.77 72.6281 79.97 72.6281 80.17 72.6281ZM64.77 85.3281C64.87 85.5281 64.97 85.6281 64.97 85.7281C66.37 84.9281 67.67 84.0281 68.97 82.9281C68.97 82.9281 68.97 82.9281 69.07 82.9281C69.67 82.4281 70.27 81.9281 70.87 81.4281L70.97 81.3281C71.57 80.8281 72.07 80.2281 72.67 79.7281C72.67 79.7281 72.67 79.6281 72.77 79.6281C73.47 78.9281 74.27 78.1281 74.97 77.3281L75.07 77.2281C75.67 76.5281 76.37 75.7281 76.97 75.0281C76.97 74.9281 77.07 74.9281 77.07 74.9281C77.57 74.2281 78.17 73.5281 78.67 72.8281C78.67 72.7281 78.67 72.8281 78.77 72.7281C79.37 71.9281 79.97 71.1281 80.47 70.3281C80.47 70.3281 80.47 70.2281 80.57 70.2281C82.67 67.3281 84.67 64.3281 86.67 61.3281C86.67 61.3281 86.67 61.2281 86.77 61.2281C87.37 60.4281 87.87 59.5281 88.47 58.7281C88.47 58.7281 88.47 58.6281 88.57 58.6281C89.57 57.2281 90.57 55.9281 91.57 54.6281C91.67 54.5281 91.77 54.4281 91.87 54.2281C91.87 54.2281 91.87 54.1281 91.97 54.1281C92.57 53.4281 93.17 52.6281 93.77 51.9281C93.77 51.9281 93.77 51.8281 93.87 51.8281C94.97 50.6281 96.17 49.4281 97.27 48.3281L97.37 48.2281C98.17 47.5281 98.87 46.9281 99.67 46.4281L99.77 46.3281L99.87 46.2281C99.87 46.2281 99.87 46.2281 99.97 46.2281C100.07 46.1281 100.17 46.0281 100.27 46.0281L99.57 44.0281C99.17 44.3281 98.77 44.6281 98.47 44.9281C98.47 44.9281 98.47 44.9281 98.37 45.0281C84.77 56.3281 79.07 74.4281 64.17 84.3281C64.37 84.6281 64.57 84.9281 64.77 85.3281ZM77.57 86.6281C77.97 86.7281 78.27 86.7281 78.57 86.7281C79.47 86.7281 80.27 86.4281 80.97 85.9281C81.77 85.2281 82.27 84.2281 82.27 83.1281C82.27 82.5281 82.17 82.0281 81.97 81.6281V81.5281C81.37 80.3281 80.07 79.4281 78.67 79.4281C78.47 79.4281 78.27 79.4281 78.17 79.4281H78.07C77.37 79.5281 76.77 79.8281 76.27 80.2281H76.17C75.37 80.9281 74.87 81.9281 74.87 83.0281C74.87 84.7281 75.97 86.2281 77.57 86.6281ZM67.97 100.128C69.07 99.7281 70.07 99.2281 70.87 98.7281L70.97 98.6281C71.77 98.1281 72.47 97.5281 73.17 96.9281C73.17 96.9281 73.17 96.8281 73.27 96.8281C76.47 93.6281 77.37 89.5281 77.27 87.2281C76.57 87.0281 75.87 86.5281 75.37 86.0281C75.77 90.1281 74.47 95.1281 68.37 98.1281C68.27 98.2281 68.27 98.2281 68.17 98.2281C68.17 98.2281 68.07 98.2281 67.97 98.2281C66.97 97.9281 65.87 97.3281 64.97 96.7281C64.87 96.6281 64.87 96.6281 64.77 96.5281C63.97 95.9281 63.27 95.1281 62.77 94.3281C62.67 94.2281 62.67 94.2281 62.67 94.1281C61.47 92.0281 61.67 89.6281 65.07 87.6281C64.87 87.1281 64.67 86.6281 64.47 86.1281C57.47 90.7281 60.17 96.5281 67.97 100.128ZM71.17 99.3281C70.47 99.7281 69.67 100.128 68.87 100.528C72.97 102.228 78.27 103.328 83.87 103.228C80.57 101.928 74.37 100.028 71.17 99.3281ZM73.57 97.5281C73.07 97.9281 72.57 98.4281 72.07 98.7281C76.07 99.6281 83.17 101.928 85.67 103.028C87.17 102.928 88.77 102.728 90.27 102.528C85.97 101.228 77.37 98.5281 73.57 97.5281ZM77.87 87.4281C77.87 89.8281 77.07 93.8281 74.07 97.0281C78.47 98.1281 88.07 101.128 91.57 102.428C92.07 102.328 92.57 102.228 92.97 102.128C92.37 99.3281 92.37 95.2281 93.77 90.7281C89.77 90.4281 85.27 89.2281 81.07 86.6281C80.37 87.1281 79.47 87.5281 78.47 87.5281C78.37 87.4281 78.07 87.4281 77.87 87.4281ZM77.87 77.7281C77.97 78.0281 78.07 78.3281 78.17 78.6281C78.27 78.6281 78.47 78.6281 78.57 78.6281C79.27 78.6281 79.97 78.8281 80.57 79.1281C80.97 77.1281 79.07 76.3281 77.87 77.7281ZM80.47 74.1281C83.67 74.9281 84.77 78.9281 82.77 81.3281C82.97 81.8281 83.07 82.4281 83.07 83.0281C83.07 84.2281 82.57 85.3281 81.87 86.1281C88.07 89.9281 95.07 90.6281 99.67 89.6281C104.47 88.6281 106.17 86.0281 103.17 83.2281C102.67 82.7281 104.07 81.4281 105.17 81.3281C105.27 80.6281 104.97 80.1281 104.47 79.8281C102.97 79.7281 100.57 80.4281 98.97 80.8281C98.87 81.1281 98.37 81.2281 98.27 80.8281C98.07 80.3281 98.57 79.5281 98.67 79.3281C98.87 78.8281 99.47 79.1281 99.27 79.6281C99.17 79.7281 99.07 79.9281 99.07 80.1281C100.67 79.7281 102.87 79.0281 104.47 79.1281C104.87 78.8281 105.87 78.1281 105.67 77.5281C105.57 77.4281 105.47 77.2281 105.27 76.9281C104.47 75.9281 104.87 75.2281 105.57 74.4281C104.37 74.2281 102.77 74.4281 101.97 75.3281C101.47 75.8281 100.67 74.4281 100.57 74.2281C100.27 73.4281 100.27 72.4281 101.47 71.3281C101.77 71.0281 102.27 71.5281 101.97 71.8281C101.07 72.7281 100.77 73.6281 101.67 74.5281C102.97 73.5281 104.77 73.3281 106.27 73.7281C108.97 73.5281 108.77 72.4281 108.07 70.5281C107.77 69.7281 107.37 68.8281 107.07 67.8281C106.47 66.3281 105.37 63.2281 104.27 59.8281C101.17 58.6281 96.77 59.3281 93.47 60.8281C92.67 62.1281 91.47 63.3281 89.77 64.5281C88.97 69.1281 85.17 72.6281 80.77 73.1281L80.47 74.1281ZM79.67 74.0281L79.77 73.3281C79.47 73.3281 79.27 73.3281 78.97 73.3281C78.47 74.0281 77.97 74.6281 77.47 75.2281C77.47 75.8281 77.57 76.3281 77.67 76.8281C79.17 75.5281 82.07 76.4281 81.17 79.4281C81.67 79.7281 82.07 80.2281 82.37 80.6281C83.97 78.4281 82.57 74.8281 79.47 74.7281C78.97 74.7281 78.97 74.0281 79.47 74.0281C79.57 74.0281 79.67 74.0281 79.67 74.0281ZM92.07 48.4281C92.07 48.8281 91.77 49.1281 91.37 49.1281C90.97 49.1281 90.67 48.8281 90.67 48.4281C90.67 48.0281 90.97 47.7281 91.37 47.7281C91.77 47.8281 92.07 48.1281 92.07 48.4281ZM93.97 46.2281C93.97 46.6281 93.67 46.9281 93.27 46.9281C92.87 46.9281 92.57 46.6281 92.57 46.2281C92.57 45.8281 92.87 45.5281 93.27 45.5281C93.67 45.5281 93.97 45.8281 93.97 46.2281ZM90.27 50.8281C90.27 51.1281 89.97 51.4281 89.67 51.4281C89.37 51.4281 89.07 51.1281 89.07 50.8281C89.07 50.5281 89.37 50.2281 89.67 50.2281C89.97 50.2281 90.27 50.5281 90.27 50.8281ZM69.87 44.4281C69.87 44.8281 69.57 45.1281 69.17 45.1281C68.77 45.1281 68.47 44.8281 68.47 44.4281C68.47 44.0281 68.77 43.7281 69.17 43.7281C69.57 43.7281 69.87 44.0281 69.87 44.4281ZM78.57 84.3281C79.27 84.3281 79.87 83.7281 79.87 83.0281C79.87 82.3281 79.27 81.7281 78.57 81.7281C77.87 81.7281 77.27 82.3281 77.27 83.0281C77.27 83.7281 77.87 84.3281 78.57 84.3281ZM78.57 85.0281C77.47 85.0281 76.57 84.1281 76.57 83.0281C76.57 81.9281 77.47 81.0281 78.57 81.0281C79.67 81.0281 80.57 81.9281 80.57 83.0281C80.57 84.1281 79.67 85.0281 78.57 85.0281ZM95.57 65.9281C95.37 65.3281 95.27 64.6281 95.37 63.8281C94.27 64.1281 93.27 64.6281 92.37 65.3281C92.67 65.4281 93.17 65.5281 93.77 65.7281C94.27 65.8281 94.87 65.9281 95.57 65.9281ZM96.07 63.6281C95.97 64.6281 96.07 65.3281 96.27 65.9281C96.77 65.9281 97.17 65.9281 97.67 65.8281C97.47 65.5281 97.27 65.0281 97.27 64.6281C97.27 64.1281 97.27 63.7281 97.47 63.3281C97.07 63.4281 96.57 63.5281 96.07 63.6281ZM99.07 62.5281C99.57 62.5281 100.07 62.4281 100.37 62.5281C100.57 62.5281 100.67 62.7281 100.67 62.9281C100.67 63.3281 100.07 63.6281 99.67 63.7281C99.77 63.9281 99.77 64.1281 99.77 64.4281C99.87 65.4281 99.47 66.3281 98.77 66.5281C98.77 66.5281 98.77 66.5281 98.67 66.5281C97.87 66.6281 96.97 66.7281 95.97 66.7281C95.87 66.7281 95.87 66.7281 95.77 66.7281C94.27 66.7281 92.77 66.4281 91.57 65.9281C91.27 66.3281 90.67 65.8281 91.07 65.4281C91.07 65.4281 91.17 65.3281 91.27 65.2281C91.27 65.2281 91.27 65.2281 91.37 65.1281C92.27 64.4281 94.67 62.6281 99.07 62.5281Z" stroke="#1D1D1B" stroke-width="0.00292" stroke-miterlimit="3.8637"/>
<path d="M124.57 35.528V36.828H128.57V49.228H130.07V36.828H134.07V35.528H124.57ZM137.17 35.528V49.228H144.57V47.928H138.67V42.828H144.07V41.528H138.67V36.828H144.57V35.528H137.17ZM154.77 36.428C156.07 36.428 157.27 36.728 158.27 37.428L158.87 36.328C157.57 35.628 156.27 35.328 154.77 35.328C150.77 35.328 147.57 38.228 147.57 42.428C147.57 46.928 150.77 49.528 154.77 49.528C156.17 49.528 157.67 49.028 158.87 48.328L158.37 47.328C157.27 47.928 156.07 48.328 154.87 48.328C151.57 48.328 149.17 45.728 149.17 42.428C149.07 39.028 151.37 36.428 154.77 36.428ZM162.37 35.528V49.228H163.87V42.628H171.37V49.228H172.87V35.528H171.37V41.428H163.87V35.528H162.37ZM179.37 35.228L177.77 35.628V49.228H179.27V37.428L187.27 49.528L188.87 49.128V35.528H187.47V47.228L179.37 35.228ZM194.37 35.528V49.228H195.87V35.528H194.37ZM203.77 48.428C202.67 48.428 201.57 47.928 200.87 47.428L200.27 48.428C201.37 49.128 202.47 49.428 203.87 49.428C206.87 49.428 208.27 47.528 208.27 45.528C208.27 43.428 206.77 42.528 205.27 41.828L204.07 41.228C203.07 40.728 201.97 40.028 201.97 38.828C201.97 37.028 203.47 36.228 204.67 36.228C205.97 36.228 206.77 36.628 207.57 37.228L208.07 36.228C206.97 35.628 205.87 35.228 204.57 35.228C202.17 35.228 200.47 36.728 200.47 38.728C200.47 41.628 202.57 42.128 204.57 43.128C205.67 43.628 206.57 44.328 206.57 45.728C206.67 47.328 205.37 48.428 203.77 48.428ZM218.77 36.428C220.07 36.428 221.27 36.728 222.27 37.428L222.87 36.328C221.57 35.628 220.27 35.328 218.77 35.328C214.77 35.328 211.57 38.228 211.57 42.428C211.57 46.928 214.77 49.528 218.77 49.528C220.17 49.528 221.67 49.028 222.87 48.328L222.37 47.328C221.27 47.928 220.07 48.328 218.87 48.328C215.57 48.328 213.17 45.728 213.17 42.428C213.07 39.028 215.47 36.428 218.77 36.428ZM226.77 35.528V49.228H228.27V42.628H235.77V49.228H237.27V35.528H235.77V41.428H228.27V35.528H226.77ZM242.17 35.528V49.228H249.67V47.928H243.77V42.828H249.17V41.528H243.77V36.828H249.67V35.528H242.17ZM136.77 67.128V58.128H135.27V66.928C135.27 70.028 133.77 70.928 131.47 70.928C128.87 70.928 127.77 69.528 127.77 66.928V58.128H126.17V67.228C126.17 70.328 127.97 72.028 131.37 72.028C133.97 72.128 136.77 71.328 136.77 67.128ZM142.67 57.928L141.07 58.328V71.928H142.57V60.128L150.57 72.228L152.17 71.828V58.228H150.77V69.928L142.67 57.928ZM157.07 58.228V71.928H158.57V58.228H157.07ZM162.97 58.028L161.47 58.528L166.67 71.928H168.17L173.47 58.528L171.97 58.028L167.47 70.328L162.97 58.028ZM176.47 58.228V71.928H183.87V70.628H177.97V65.428H183.27V64.128H177.97V59.428H183.87V58.128H176.47V58.228ZM190.87 64.828H189.07V59.328H191.27C193.67 59.328 194.37 60.528 194.37 62.028C194.37 64.328 192.67 64.828 190.87 64.828ZM191.67 58.228H187.57V71.928H189.07V66.028H190.37C191.37 66.028 191.87 66.428 192.47 67.128L193.07 67.928L196.27 72.328L197.57 71.528L194.87 67.828C194.37 67.128 193.57 65.928 192.77 65.628V65.328C194.67 65.028 195.77 64.028 195.77 61.728C195.77 59.628 194.27 58.228 191.67 58.228ZM203.07 71.128C201.97 71.128 200.87 70.628 200.17 70.128L199.57 71.128C200.67 71.828 201.77 72.128 203.17 72.128C206.17 72.128 207.57 70.228 207.57 68.228C207.57 66.128 206.07 65.228 204.57 64.528L203.37 63.928C202.37 63.428 201.27 62.728 201.27 61.528C201.27 59.728 202.77 58.928 203.97 58.928C205.27 58.928 206.07 59.428 206.87 59.928L207.37 58.928C206.27 58.328 205.17 57.928 203.87 57.928C201.47 57.928 199.77 59.428 199.77 61.428C199.77 64.328 201.87 64.828 203.87 65.828C204.97 66.328 205.87 67.028 205.87 68.428C205.97 70.128 204.77 71.128 203.07 71.128ZM211.67 58.228V71.928H213.17V58.228H211.67ZM216.17 58.228V59.528H220.17V71.928H221.67V59.428H225.67V58.128H216.17V58.228ZM232.67 59.528L235.17 66.328H230.07L232.67 59.528ZM238.87 71.728L233.47 58.228H231.87L226.27 71.728L227.77 72.228L229.57 67.428H235.57L237.37 72.228L238.87 71.728ZM236.57 57.328H235.17V59.128H236.57V57.328ZM230.17 59.128V57.328H228.77V59.128H230.17ZM240.27 58.228V59.528H244.27V71.928H245.77V59.528H249.77V58.228H240.27ZM129.67 93.328H127.67V82.028H129.97C133.77 82.028 136.27 83.928 136.27 87.628C136.37 91.228 133.77 93.328 129.67 93.328ZM130.37 80.828H126.17V94.528H129.87C134.57 94.528 137.77 92.128 137.77 87.528C137.77 84.128 135.87 80.828 130.37 80.828ZM146.27 82.228L148.77 89.028H143.67L146.27 82.228ZM152.47 94.328L147.07 80.828H145.47L139.87 94.328L141.37 94.828L143.17 90.028H149.17L150.97 94.828L152.47 94.328ZM159.47 87.528H157.67V82.028H159.87C162.27 82.028 162.97 83.228 162.97 84.728C162.97 86.928 161.27 87.528 159.47 87.528ZM160.27 80.828H156.17V94.528H157.67V88.628H158.97C159.97 88.628 160.47 89.028 161.07 89.728L161.67 90.528L164.87 94.928L166.17 94.128L163.47 90.528C162.97 89.828 162.17 88.628 161.37 88.428V88.128C163.27 87.828 164.37 86.828 164.37 84.528C164.37 82.328 162.87 80.828 160.27 80.828ZM174.67 80.828H172.97L169.17 94.328L170.67 94.728L173.87 82.828L177.37 94.428H179.07L182.57 82.728L185.77 94.628L187.27 94.228L183.37 80.828H181.67L178.17 92.728L174.67 80.828ZM193.77 93.728C192.67 93.728 191.57 93.228 190.87 92.728L190.27 93.728C191.37 94.428 192.47 94.728 193.87 94.728C196.87 94.728 198.27 92.828 198.27 90.828C198.27 88.728 196.77 87.828 195.27 87.128L194.07 86.528C193.07 86.028 191.97 85.328 191.97 84.128C191.97 82.328 193.47 81.528 194.67 81.528C195.97 81.528 196.77 81.928 197.57 82.528L198.07 81.528C196.97 80.928 195.87 80.528 194.57 80.528C192.17 80.528 190.47 82.028 190.47 84.028C190.47 86.928 192.57 87.428 194.57 88.428C195.67 88.928 196.57 89.628 196.57 91.028C196.67 92.728 195.47 93.728 193.77 93.728ZM200.77 80.828V82.128H204.77V94.528H206.27V82.128H210.27V80.828H200.77ZM217.47 82.228L219.97 89.028H214.87L217.47 82.228ZM223.67 94.428L218.27 80.828H216.67L211.07 94.328L212.57 94.828L214.37 90.028H220.37L222.17 94.828L223.67 94.428ZM230.37 93.328H228.37V82.028H230.67C234.47 82.028 236.97 83.928 236.97 87.628C236.97 91.228 234.37 93.328 230.37 93.328ZM230.97 80.828H226.77V94.528H230.47C235.17 94.528 238.37 92.128 238.37 87.528C238.37 84.128 236.47 80.828 230.97 80.828ZM240.27 80.828V82.128H244.27V94.528H245.77V82.128H249.77V80.828H240.27Z" fill="#1D1D1B"/>
</g>
<defs>
<clipPath id="clip0_39_89">
<rect width="250" height="157" fill="white"/>
</clipPath>
</defs>
</svg>
